<?xml version="1.0" encoding="UTF-8"?>
<svg xmlns="http://www.w3.org/2000/svg" viewBox="0 0 500 372.61">
  <defs>
    <style>
      .cls-1 {
        fill: #fafafa;
      }

      .cls-2 {
        fill: #263238;
      }

      .cls-3 {
        fill: #f0f0f0;
      }

      .cls-4, .cls-5 {
        opacity: .3;
      }

      .cls-6, .cls-7, .cls-5, .cls-8 {
        fill: #fff;
      }

      .cls-7 {
        opacity: .5;
      }

      .cls-9 {
        opacity: .4;
      }

      .cls-10 {
        fill: #e0e0e0;
      }

      .cls-11 {
        opacity: .6;
      }

      .cls-11, .cls-12 {
        fill: #ebebeb;
      }

      .cls-13 {
        opacity: .2;
      }

      .cls-8 {
        opacity: .1;
      }

      .cls-14 {
        fill: #ffb573;
      }

      .cls-15 {
        fill: #f5f5f5;
      }

      .cls-16 {
        fill: #e6e6e6;
      }

      .cls-17 {
        fill: #ff5652;
      }

      .cls-18 {
        fill: #407bff;
      }
    </style>
  </defs>
  <g id="Background_Complete" data-name="Background Complete">
    <g>
      <rect class="cls-12" y="327.45" width="500" height=".25"/>
      <rect class="cls-12" x="416.78" y="343.54" width="33.12" height=".25"/>
      <rect class="cls-12" x="322.53" y="346.26" width="8.69" height=".25"/>
      <rect class="cls-12" x="396.59" y="334.26" width="19.19" height=".25"/>
      <rect class="cls-12" x="52.46" y="335.94" width="43.19" height=".25"/>
      <rect class="cls-12" x="104.56" y="335.94" width="6.33" height=".25"/>
      <rect class="cls-12" x="131.47" y="340.16" width="93.68" height=".25"/>
      <path class="cls-12" d="M237.01,282.85H43.91c-3.15,0-5.71-2.56-5.71-5.71V5.71c0-3.15,2.56-5.71,5.71-5.71h193.1c3.15,0,5.71,2.56,5.71,5.71v271.43c0,3.15-2.56,5.71-5.71,5.71ZM43.91.25c-3.01,0-5.46,2.45-5.46,5.46v271.43c0,3.01,2.45,5.46,5.46,5.46h193.1c3.01,0,5.46-2.45,5.46-5.46V5.71c0-3.01-2.45-5.46-5.46-5.46H43.91Z"/>
      <path class="cls-12" d="M453.31,282.85h-193.1c-3.15,0-5.71-2.56-5.71-5.71V5.71c0-3.15,2.56-5.71,5.71-5.71h193.1c3.15,0,5.71,2.56,5.71,5.71v271.43c0,3.15-2.56,5.71-5.71,5.71ZM260.21.25c-3.01,0-5.46,2.45-5.46,5.46v271.43c0,3.01,2.45,5.46,5.46,5.46h193.1c3.01,0,5.46-2.45,5.46-5.46V5.71c0-3.01-2.45-5.46-5.46-5.46h-193.1Z"/>
    </g>
    <g>
      <rect class="cls-16" x="289.69" y="28.88" width="137.78" height="90.23" transform="translate(717.16 147.99) rotate(180)"/>
      <rect class="cls-3" x="285.49" y="28.88" width="140.02" height="90.23" transform="translate(710.99 147.99) rotate(180)"/>
      <rect class="cls-16" x="289.69" y="119.11" width="137.78" height="17.71" transform="translate(717.16 255.92) rotate(180)"/>
      <rect class="cls-3" x="278.48" y="119.11" width="140.02" height="17.71" transform="translate(696.99 255.92) rotate(180)"/>
      <rect class="cls-1" x="316.27" y="9.87" width="78.46" height="128.25" transform="translate(429.49 -281.5) rotate(90)"/>
      <polygon class="cls-6" points="390.7 113.22 374.32 34.77 348.76 34.77 365.14 113.22 390.7 113.22"/>
      <path class="cls-3" d="M416.9,107.36c.23,0,.42-.19.42-.42V38.59c0-.23-.19-.42-.42-.42s-.42.19-.42.42v68.35c0,.23.19.42.42.42Z"/>
      <polygon class="cls-6" points="359.65 113.22 343.27 34.77 333.3 34.77 349.69 113.22 359.65 113.22"/>
      <rect class="cls-16" x="252.52" y="73.62" width="78.46" height=".75" transform="translate(365.74 -217.75) rotate(90)"/>
      <polygon class="cls-11" points="284.09 43.64 421.88 43.64 422.42 37.05 284.64 37.05 284.09 43.64"/>
      <polygon class="cls-11" points="284.09 54.44 421.88 54.44 422.42 47.85 284.64 47.85 284.09 54.44"/>
      <polygon class="cls-11" points="284.09 65.24 421.88 65.24 422.42 58.66 284.64 58.66 284.09 65.24"/>
      <polygon class="cls-11" points="284.09 76.04 421.88 76.04 422.42 69.46 284.64 69.46 284.09 76.04"/>
      <polygon class="cls-11" points="284.09 86.85 421.88 86.85 422.42 80.26 284.64 80.26 284.09 86.85"/>
      <polygon class="cls-11" points="284.09 97.65 421.88 97.65 422.42 91.06 284.64 91.06 284.09 97.65"/>
    </g>
    <g>
      <g>
        <rect class="cls-16" x="378.8" y="261.83" width="28.89" height="5.7"/>
        <rect class="cls-16" x="324.31" y="196.38" width="5.33" height="131.07" transform="translate(653.95 523.83) rotate(180)"/>
        <rect class="cls-15" x="305.84" y="261.83" width="72.96" height="5.7" transform="translate(684.63 529.35) rotate(180)"/>
        <rect class="cls-16" x="378.8" y="293" width="28.89" height="5.7"/>
        <rect class="cls-15" x="305.84" y="293" width="72.96" height="5.7" transform="translate(684.63 591.69) rotate(180)"/>
        <rect class="cls-16" x="378.8" y="199.5" width="28.89" height="5.7"/>
        <rect class="cls-15" x="305.84" y="199.5" width="72.96" height="5.7" transform="translate(684.63 404.69) rotate(180)"/>
        <rect class="cls-16" x="378.8" y="230.66" width="28.89" height="5.7"/>
        <rect class="cls-15" x="305.84" y="230.66" width="72.96" height="5.7" transform="translate(684.63 467.02) rotate(180)"/>
      </g>
      <rect class="cls-16" x="397.27" y="196.38" width="5.33" height="131.07" transform="translate(799.88 523.83) rotate(180)"/>
      <rect class="cls-15" x="373.47" y="196.38" width="5.33" height="131.07" transform="translate(752.26 523.83) rotate(180)"/>
      <rect class="cls-15" x="305.84" y="196.38" width="5.33" height="131.07" transform="translate(617 523.83) rotate(180)"/>
    </g>
    <g>
      <rect class="cls-16" x="65.37" y="221.55" width="54.58" height="105.89" transform="translate(185.33 549) rotate(180)"/>
      <polygon class="cls-1" points="79.95 327.45 65.37 327.45 65.37 312.83 95.23 312.83 79.95 327.45"/>
      <rect class="cls-16" x="214.18" y="221.55" width="54.58" height="105.89" transform="translate(482.94 549) rotate(180)"/>
      <rect class="cls-1" x="65.37" y="221.55" width="161.53" height="100.86" transform="translate(292.28 543.97) rotate(180)"/>
      <polygon class="cls-1" points="212.33 327.45 226.9 327.45 226.9 312.83 197.05 312.83 212.33 327.45"/>
      <rect class="cls-3" x="76.68" y="259.14" width="138.92" height="25.24" transform="translate(292.28 543.52) rotate(180)"/>
      <rect class="cls-3" x="76.68" y="289.77" width="138.92" height="25.24" transform="translate(292.28 604.79) rotate(180)"/>
      <path class="cls-1" d="M103.08,256.95h86.11c2.53,0,4.58,2.05,4.58,4.58v.31h-95.26v-.31c0-2.53,2.05-4.58,4.58-4.58Z" transform="translate(292.28 518.79) rotate(180)"/>
      <rect class="cls-3" x="76.68" y="228.5" width="138.92" height="25.24" transform="translate(292.28 482.25) rotate(180)"/>
      <path class="cls-1" d="M103.08,226.32h86.11c2.53,0,4.58,2.05,4.58,4.58v.31h-95.26v-.31c0-2.53,2.05-4.58,4.58-4.58Z" transform="translate(292.28 457.52) rotate(180)"/>
      <path class="cls-1" d="M103.08,287.59h86.11c2.53,0,4.58,2.05,4.58,4.58v.31h-95.26v-.31c0-2.53,2.05-4.58,4.58-4.58Z" transform="translate(292.28 580.06) rotate(180)"/>
    </g>
    <g>
      <rect class="cls-16" x="74.07" y="28.88" width="137.78" height="90.23" transform="translate(285.92 147.99) rotate(180)"/>
      <rect class="cls-3" x="69.86" y="28.88" width="140.02" height="90.23" transform="translate(279.75 147.99) rotate(180)"/>
      <rect class="cls-16" x="74.07" y="119.11" width="137.78" height="17.71" transform="translate(285.92 255.92) rotate(180)"/>
      <rect class="cls-3" x="62.86" y="119.11" width="140.02" height="17.71" transform="translate(265.74 255.92) rotate(180)"/>
      <rect class="cls-1" x="100.65" y="9.87" width="78.46" height="128.25" transform="translate(213.87 -65.88) rotate(90)"/>
      <polygon class="cls-6" points="175.08 113.22 158.7 34.77 133.14 34.77 149.52 113.22 175.08 113.22"/>
      <path class="cls-3" d="M201.27,107.36c.23,0,.42-.19.42-.42V38.59c0-.23-.19-.42-.42-.42s-.42.19-.42.42v68.35c0,.23.19.42.42.42Z"/>
      <polygon class="cls-6" points="144.03 113.22 127.65 34.77 117.68 34.77 134.06 113.22 144.03 113.22"/>
      <rect class="cls-16" x="36.9" y="73.62" width="78.46" height=".75" transform="translate(150.12 -2.13) rotate(90)"/>
      <polygon class="cls-11" points="68.47 43.64 206.25 43.64 206.79 37.05 69.01 37.05 68.47 43.64"/>
      <polygon class="cls-11" points="68.47 47.35 206.25 47.35 206.79 40.77 69.01 40.77 68.47 47.35"/>
      <polygon class="cls-11" points="68.47 51.07 206.25 51.07 206.79 44.48 69.01 44.48 68.47 51.07"/>
      <polygon class="cls-11" points="68.47 54.78 206.25 54.78 206.79 48.2 69.01 48.2 68.47 54.78"/>
      <polygon class="cls-11" points="68.47 58.5 206.25 58.5 206.79 51.91 69.01 51.91 68.47 58.5"/>
      <polygon class="cls-11" points="68.47 62.22 206.25 62.22 206.79 55.63 69.01 55.63 68.47 62.22"/>
    </g>
    <g>
      <rect class="cls-15" x="96.01" y="165.23" width="4.76" height="53.09" transform="translate(196.79 383.54) rotate(180)"/>
      <rect class="cls-1" x="96.63" y="165.19" width="1.35" height="53.09" transform="translate(194.6 383.47) rotate(180)"/>
      <rect class="cls-1" x="98.54" y="165.19" width=".53" height="53.09" transform="translate(197.6 383.47) rotate(180)"/>
      <path class="cls-3" d="M80.76,217.11h35.26c0,2.45-1.99,4.44-4.44,4.44h-26.38c-2.45,0-4.44-1.99-4.44-4.44h0Z" transform="translate(196.79 438.67) rotate(180)"/>
      <path class="cls-3" d="M89.84,198.19h0c.75,0,1.37-.62,1.37-1.37v-34.81c0-.75-.62-1.37-1.37-1.37h0c-.75,0-1.37.62-1.37,1.37v34.81c0,.75.62,1.37,1.37,1.37Z"/>
      <polygon class="cls-10" points="77.07 177.85 119.72 177.85 114.81 148.05 81.98 148.05 77.07 177.85"/>
    </g>
  </g>
  <g id="Shadow">
    <ellipse id="_Path_" data-name="&amp;lt;Path&amp;gt;" class="cls-15" cx="250" cy="361.29" rx="193.89" ry="11.32"/>
  </g>
  <g id="Window_No_Data" data-name="Window No Data">
    <g>
      <g>
        <rect class="cls-18" x="103.78" y="147.42" width="1" height="18.49" transform="translate(-10.98 7.9) rotate(-4.12)"/>
        <rect class="cls-18" x="105.38" y="175.4" width="1" height="6.96" transform="translate(-12.58 8.07) rotate(-4.12)"/>
        <path class="cls-18" d="M337.71,260.21H123.55c-4.84,0-9.09-3.96-9.44-8.81l-10.52-146.13c-.35-4.84,3.33-8.81,8.17-8.81h214.16c4.84,0,9.09,3.96,9.44,8.81l10.52,146.13c.35,4.84-3.33,8.81-8.17,8.81Z"/>
        <g>
          <g>
            <path class="cls-18" d="M338.53,260.21H124.37c-4.84,0-9.09-3.96-9.44-8.81l-10.52-146.13c-.35-4.84,3.33-8.81,8.17-8.81h214.16c4.84,0,9.09,3.96,9.44,8.81l10.52,146.13c.35,4.84-3.33,8.81-8.17,8.81Z"/>
            <path class="cls-7" d="M338.53,260.21H124.37c-4.84,0-9.09-3.96-9.44-8.81l-10.52-146.13c-.35-4.84,3.33-8.81,8.17-8.81h214.16c4.84,0,9.09,3.96,9.44,8.81l10.52,146.13c.35,4.84-3.33,8.81-8.17,8.81Z"/>
          </g>
          <path class="cls-18" d="M327.06,100.87H112.9c-.24,0-.48,0-.72.03-5.47.45-4.36,8.78,1.17,8.78h214.52c5.53,0,5.44-8.33-.1-8.78-.24-.02-.48-.03-.72-.03Z"/>
          <path class="cls-1" d="M118.48,105.27c.08,1.12-.76,2.02-1.87,2.02s-2.08-.9-2.16-2.02c-.08-1.11.76-2.02,1.87-2.02s2.08.9,2.16,2.02Z"/>
          <path class="cls-1" d="M125.35,105.27c.08,1.12-.76,2.02-1.87,2.02s-2.08-.9-2.16-2.02c-.08-1.11.76-2.02,1.87-2.02s2.08.9,2.16,2.02Z"/>
          <path class="cls-1" d="M132.21,105.27c.08,1.12-.76,2.02-1.87,2.02s-2.08-.9-2.16-2.02c-.08-1.11.76-2.02,1.87-2.02s2.08.9,2.16,2.02Z"/>
        </g>
        <path class="cls-6" d="M332.85,245.62H127.95c-1.76,0-3.3-1.43-3.42-3.19l-8.65-120.17c-.13-1.76,1.2-3.19,2.96-3.19h204.9c1.76,0,3.3,1.43,3.42,3.19l8.65,120.17c.13,1.76-1.2,3.19-2.96,3.19Z"/>
      </g>
      <g>
        <g>
          <g>
            <g>
              <polygon class="cls-6" points="246.53 199.85 243.19 153.53 233.09 147.44 205.28 147.44 209.06 199.85 246.53 199.85"/>
              <path class="cls-18" d="M246.53,200.33h-37.47c-.25,0-.47-.2-.48-.45l-3.77-52.4c0-.13.04-.27.13-.37.09-.1.22-.15.35-.15h27.8c.09,0,.17.02.25.07l10.11,6.08c.14.08.22.22.23.38l3.34,46.32c0,.13-.04.27-.13.37-.09.1-.22.15-.35.15ZM209.51,199.36h36.5l-3.28-45.55-9.78-5.88h-27.15l3.7,51.43Z"/>
            </g>
            <g>
              <polygon class="cls-12" points="243.19 153.53 233.09 147.44 236.8 155.5 243.19 153.53"/>
              <path class="cls-18" d="M236.8,155.99c-.18,0-.36-.11-.44-.28l-3.71-8.06c-.09-.19-.04-.42.12-.56.16-.14.39-.16.57-.05l10.11,6.08c.16.1.25.28.23.47-.02.19-.16.35-.34.4l-6.4,1.98s-.1.02-.14.02ZM234.19,148.67l2.88,6.24,4.96-1.53-7.83-4.71Z"/>
            </g>
          </g>
          <g>
            <path class="cls-18" d="M220.97,171.05c.08,1.17-.8,2.12-1.96,2.12s-2.19-.95-2.27-2.12.8-2.12,1.96-2.12,2.19.95,2.27,2.12Z"/>
            <path class="cls-18" d="M234.7,171.05c.08,1.17-.8,2.12-1.96,2.12s-2.19-.95-2.27-2.12.8-2.12,1.96-2.12,2.19.95,2.27,2.12Z"/>
            <path class="cls-18" d="M238.58,184.78c-.25,0-.46-.19-.48-.45-.25-3.4-5.58-6.17-11.9-6.17-4.18,0-7.94,1.24-9.81,3.25-.83.89-1.21,1.85-1.14,2.86.02.27-.18.5-.45.52-.27.02-.5-.18-.52-.45-.09-1.27.39-2.51,1.4-3.59,2.04-2.19,6.07-3.56,10.52-3.56,6.93,0,12.58,3.11,12.87,7.07.02.27-.18.5-.45.52-.01,0-.02,0-.04,0Z"/>
          </g>
          <path class="cls-18" d="M213.17,166.76c-.12,0-.24-.04-.33-.13-.2-.18-.21-.49-.03-.68l2.12-2.29c.18-.2.49-.21.68-.03.2.18.21.49.03.68l-2.12,2.29c-.1.1-.23.16-.36.16Z"/>
          <path class="cls-18" d="M237.58,166.76c-.12,0-.24-.04-.33-.13l-2.45-2.29c-.2-.18-.21-.49-.02-.68.18-.2.49-.21.68-.02l2.45,2.29c.2.18.21.49.02.68-.1.1-.22.15-.35.15Z"/>
        </g>
        <g>
          <path class="cls-18" d="M202.26,210.2h2.26l3.26,4.33-.31-4.33h2.28l.56,7.83h-2.28l-3.24-4.3.31,4.3h-2.28l-.56-7.83Z"/>
          <path class="cls-18" d="M211.33,214.12c-.09-1.28.19-2.27.85-2.99s1.63-1.07,2.9-1.07,2.33.35,3.09,1.05,1.18,1.68,1.27,2.94c.07.92-.03,1.67-.3,2.25-.27.59-.68,1.04-1.24,1.37-.56.33-1.27.49-2.14.49s-1.62-.14-2.22-.42c-.6-.28-1.1-.73-1.5-1.34s-.64-1.37-.7-2.29ZM213.76,214.13c.06.79.24,1.36.56,1.7.32.35.73.52,1.24.52s.91-.17,1.17-.51c.26-.34.36-.95.3-1.82-.05-.74-.24-1.28-.56-1.62s-.74-.51-1.25-.51-.87.17-1.14.52c-.27.35-.38.92-.32,1.72Z"/>
          <path class="cls-18" d="M224.15,210.2h3.6c.71,0,1.29.1,1.74.29.45.19.83.47,1.14.83.31.36.55.78.71,1.26s.26.98.3,1.52c.06.84.01,1.49-.15,1.95-.16.46-.39.85-.71,1.16-.32.31-.66.52-1.05.62-.52.14-1,.21-1.43.21h-3.6l-.56-7.83ZM226.7,211.97l.31,4.28h.59c.51,0,.86-.06,1.07-.17.21-.11.36-.31.46-.59.1-.28.13-.73.08-1.36-.06-.83-.24-1.4-.53-1.7-.29-.31-.75-.46-1.38-.46h-.6Z"/>
          <path class="cls-18" d="M237.45,216.74h-2.75l-.29,1.29h-2.47l2.38-7.83h2.64l3.51,7.83h-2.53l-.48-1.29ZM236.82,215.05l-1.07-2.82-.65,2.82h1.72Z"/>
          <path class="cls-18" d="M239.37,210.2h7.36l.14,1.93h-2.47l.42,5.9h-2.42l-.42-5.9h-2.47l-.14-1.93Z"/>
          <path class="cls-18" d="M252.37,216.74h-2.75l-.29,1.29h-2.47l2.38-7.83h2.64l3.51,7.83h-2.53l-.48-1.29ZM251.74,215.05l-1.07-2.82-.65,2.82h1.72Z"/>
        </g>
      </g>
    </g>
  </g>
  <g id="Character">
    <g>
      <path class="cls-14" d="M353.69,118.13c.89-.45,1.96-1.03,2.94-1.57,1-.55,2-1.13,2.98-1.72,1.96-1.21,3.93-2.4,5.81-3.72,3.78-2.61,7.33-5.5,10.51-8.65.42-.38.77-.81,1.16-1.21l.57-.61.29-.31.14-.15s.03-.03.01,0l-.03.05c-.14.27-.02.19.03-.07.07-.25.12-.65.14-1.09.06-1.82-.29-4.11-.73-6.32-.89-4.49-2.24-9.1-3.57-13.62l3.89-1.7c2.43,4.35,4.46,8.78,6.11,13.6.79,2.44,1.51,4.89,1.72,7.89.04.77.06,1.57-.08,2.51-.15.92-.38,2.03-1.22,3.28l-.17.23-.13.17-.15.19-.31.37-.62.75c-.42.49-.81,1.02-1.26,1.48-3.45,3.83-7.28,7.21-11.38,10.15-2.04,1.49-4.12,2.9-6.28,4.19-1.08.65-2.17,1.28-3.28,1.89-1.12.62-2.19,1.17-3.47,1.77l-3.63-7.76Z"/>
      <path class="cls-18" d="M344.79,353.23c.77,0,1.62-.16,2.21-.3.08-.02.14-.08.15-.16.01-.08-.02-.16-.09-.2-.29-.19-2.83-1.83-3.81-1.39-.15.07-.35.22-.39.56-.06.44.05.8.33,1.05.36.33.95.44,1.6.44ZM346.44,352.64c-1.46.29-2.55.24-2.98-.15-.18-.16-.25-.4-.2-.71.02-.17.1-.22.17-.25.51-.23,1.98.48,3.02,1.1Z"/>
      <path class="cls-18" d="M346.96,352.93s.07,0,.1-.03c.06-.04.1-.1.1-.17,0-.1-.01-2.51-.92-3.32-.24-.21-.52-.3-.84-.27-.5.06-.63.37-.67.55-.19.94,1.33,2.75,2.13,3.2.03.02.06.03.1.03ZM345.53,349.54c.16,0,.31.06.44.17.54.48.73,1.84.78,2.64-.8-.64-1.75-1.99-1.63-2.57.02-.09.07-.21.33-.24.03,0,.06,0,.09,0Z"/>
      <path class="cls-14" d="M346.22,93.11c-.97,4.97-3.03,15.04.45,18.35,0,0-1.36,5.04-10.59,5.04-10.16,0-4.85-5.04-4.85-5.04,5.54-1.32,5.4-5.44,4.43-9.3l10.56-9.06Z"/>
      <path class="cls-2" d="M329.28,113.47c-1.59.22-.24-3.91.41-4.34,1.5-.99,20.85-2.39,20.73-.04-.08,1.01-.55,2.98-1.4,3.65-.85.67-5.82-1.35-19.73.73Z"/>
      <path class="cls-2" d="M332.44,112.08c-1.27.43-1.15-3.73-.71-4.23,1-1.16,16.66-5.18,17.13-2.91.18.98.27,2.95-.27,3.71-.54.76-5.14-.5-16.14,3.43Z"/>
      <path class="cls-2" d="M326.61,84.16c-.12,0-.25-.04-.33-.14-1.12-1.37-2.58-1.23-2.59-1.23-.22.02-.41-.13-.44-.35-.02-.22.13-.41.35-.44.08,0,1.9-.18,3.29,1.51.14.17.11.42-.06.56-.07.06-.15.08-.23.09Z"/>
      <path class="cls-17" d="M324.67,89.05s-.86,3.01-1.97,4.53c.97.74,2.44.21,2.44.21l-.47-4.74Z"/>
      <path class="cls-2" d="M325.16,87.83c.07.67-.24,1.25-.68,1.3-.44.04-.85-.47-.92-1.14-.07-.67.24-1.25.68-1.3s.85.47.92,1.14Z"/>
      <path class="cls-2" d="M324.44,86.71l-1.66-.31s.95,1.18,1.66.31Z"/>
      <polygon class="cls-14" points="356.7 352.73 348.32 352.73 348.98 333.34 357.36 333.34 356.7 352.73"/>
      <path class="cls-2" d="M347.66,351.76h9.41c.34,0,.62.24.67.57l1.07,7.45c.11.77-.55,1.5-1.34,1.49-3.28-.06-4.86-.25-9-.25-2.55,0-6.27.26-9.78.26s-3.7-3.48-2.24-3.79c6.56-1.41,7.6-3.36,9.81-5.22.4-.33.9-.52,1.4-.52Z"/>
      <g class="cls-13">
        <polygon points="357.36 333.34 348.98 333.34 348.64 343.34 357.02 343.34 357.36 333.34"/>
      </g>
      <path class="cls-14" d="M323.37,123.09c-5.18-2.03-10.13-4.24-15.05-6.75-4.92-2.52-9.75-5.19-14.4-8.77-1.16-.91-2.3-1.91-3.42-3.07-.28-.3-.56-.58-.83-.92-.29-.36-.51-.57-.88-1.13-.68-.97-1.2-2.28-1.34-3.61-.13-1.33.11-2.61.49-3.62.38-1.03.88-1.88,1.41-2.61,1.05-1.46,2.22-2.55,3.39-3.52,2.34-1.94,4.82-3.35,7.3-4.67,1.24-.66,2.5-1.25,3.78-1.8,1.29-.56,2.54-1.07,3.91-1.54l1.78,3.85c-4.36,2.75-8.88,5.77-12.2,9.16-.81.84-1.51,1.72-1.96,2.49-.48.79-.47,1.38-.39,1.33.04,0,.02-.02.14.1l.4.43c.15.18.36.36.55.55.79.73,1.71,1.47,2.7,2.17,1.98,1.41,4.17,2.73,6.43,3.97,2.25,1.25,4.57,2.45,6.94,3.59,4.71,2.26,9.6,4.43,14.39,6.41l-3.13,7.97Z"/>
      <path class="cls-14" d="M311.97,82.2l1.39-3-6.3-2.19s-1.96,5.9.38,8.63h0c1.99-.32,3.69-1.61,4.53-3.44Z"/>
      <polygon class="cls-14" points="313.35 72.7 308.32 71.25 307.06 77.01 313.35 79.2 313.35 72.7"/>
      <path class="cls-14" d="M378.35,79.49l.73-7.02-6.49,1.52s-.1,6.58,3.34,7.63l2.42-2.13Z"/>
      <polygon class="cls-14" points="375.96 67.55 371.73 69.53 372.6 73.99 379.08 72.47 375.96 67.55"/>
      <path class="cls-14" d="M347.54,83.3c.31,8.31.61,11.82-3.14,16.47-5.65,6.99-15.92,5.55-18.7-2.5-2.5-7.24-2.58-19.61,5.18-23.69,7.65-4.02,16.36,1.42,16.66,9.73Z"/>
      <g>
        <path class="cls-2" d="M343.92,99.75c8.16-3.52,13.52-10.95,11.25-22.57-2.17-11.12-9.67-12.21-12.77-9.91-3.1,2.31-10.83-1.13-15.46,2.77-8.03,6.76-.44,14.05,3.52,18.37,2.36,4.86,5.46,14.8,13.46,11.34Z"/>
        <path class="cls-18" d="M340.53,75.18c2.75,3.98,8.03,5.11,11.79,2.51,3.76-2.6,4.58-7.93,1.82-11.92-2.75-3.98-8.03-5.11-11.79-2.51-3.76,2.6-4.58,7.93-1.82,11.92Z"/>
        <path class="cls-2" d="M342.65,68.05c-1.18-6.7,5.16-11.86,13.64-9.37,8.47,2.5,3.99,10.01,2.25,16.01-1.74,6,2.82,11.71,4.73,7.15,1.91-4.57-1.3-5.98-1.3-5.98,0,0,9,2.33.64,12.48-8.36,10.14-15.93-1.06-13.88-7.67,1.65-5.34-4.97-6.29-6.08-12.62Z"/>
        <path class="cls-2" d="M334.18,70.58c-3.87-2.02-10.42-3.65-14.15,2.62-1.76,2.97-1.08,6.99-1.08,6.99l11.39.76,3.84-10.37Z"/>
        <path class="cls-2" d="M317.61,78.22s-.01,0-.02,0c-.14,0-.24-.13-.23-.26.01-.17.29-4.19,2.71-6.72,5.87-6.1,12.75-1.04,14.72.66.1.09.12.25.03.35-.09.1-.25.12-.35.03-1.88-1.62-8.47-6.47-14.03-.69-2.3,2.39-2.57,6.36-2.58,6.4,0,.13-.12.23-.25.23Z"/>
      </g>
      <path class="cls-14" d="M331.85,88.08c-.01,1.62-.74,3.2-1.66,4.28-1.38,1.62-2.97.82-3.33-.97-.33-1.61,0-4.4,1.74-5.37,1.72-.96,3.25.22,3.24,2.07Z"/>
      <g>
        <path class="cls-2" d="M330.05,164.17s.53,58.14,5.58,90.54c4.07,26.17,11.61,86.69,11.61,86.69h11.42s1.12-58.42-.95-84.31c-5.23-65.5,8.27-77.74-2.63-92.93h-25.04Z"/>
        <path class="cls-8" d="M330.05,164.17s.53,58.14,5.58,90.54c4.07,26.17,11.61,86.69,11.61,86.69h11.42s1.12-58.42-.95-84.31c-5.23-65.5,8.27-77.74-2.63-92.93h-25.04Z"/>
      </g>
      <path class="cls-4" d="M336.06,190.55c4.01,17.55.81,45.19-1.38,57.36-2.32-18.48-3.49-42.43-4.07-59.98,2.07-3.36,4.03-3.58,5.45,2.62Z"/>
      <polygon class="cls-18" points="345.68 341.63 360.23 341.63 360.99 336.53 345.6 336 345.68 341.63"/>
      <g>
        <path class="cls-18" d="M349.83,115.09c1.37-2.72,8.72-4.43,12.75-4.43l3.01,13.36s-8.01,11.89-11.34,10.63c-3.94-1.49-7.34-13.74-4.41-19.57Z"/>
        <path class="cls-9" d="M349.83,115.09c1.37-2.72,8.72-4.43,12.75-4.43l3.01,13.36s-8.01,11.89-11.34,10.63c-3.94-1.49-7.34-13.74-4.41-19.57Z"/>
      </g>
      <path class="cls-18" d="M341.35,338.36c.04-.06.04-.13,0-.2-.04-.07-.12-.12-.2-.1-.42.06-4.12.65-4.62,1.71-.1.2-.08.42.04.62.2.34.49.53.86.57,1.21.13,2.96-1.56,3.9-2.57,0,0,.02-.02.02-.03ZM336.91,339.9c.34-.56,2.26-1.08,3.72-1.35-1.32,1.34-2.48,2.09-3.16,2.02-.24-.02-.42-.15-.56-.38-.05-.09-.06-.17-.02-.25,0-.01.01-.03.02-.04Z"/>
      <path class="cls-18" d="M341.35,338.36s.01-.03.02-.04c.02-.07,0-.14-.04-.19-.06-.07-1.55-1.78-2.91-1.87-.42-.03-.79.1-1.09.37-.41.37-.38.69-.27.89.43.86,3.09,1.16,4.17.93.05-.01.1-.04.13-.09ZM337.44,337.1c.03-.05.08-.11.16-.18.23-.2.49-.29.8-.27.9.06,1.92.99,2.38,1.46-1.19.1-3.11-.26-3.37-.78-.02-.03-.05-.11.03-.24Z"/>
      <polygon class="cls-14" points="350.08 334.81 342.42 338.22 339.01 331.11 334.55 321.81 334.02 320.72 341.68 317.32 342.27 318.53 346.59 327.54 350.08 334.81"/>
      <polygon class="cls-13" points="346.59 327.54 339.01 331.11 334.55 321.81 342.27 318.53 346.59 327.54"/>
      <g>
        <path class="cls-2" d="M321.07,164.17s-24.47,60.83-17.84,89.48c6,25.89,32.5,74.92,32.5,74.92l10.25-5.15s-16.39-59.19-18.17-72.05c-3.46-25.02,18.78-60.33,18.78-87.21h-25.52Z"/>
        <path class="cls-8" d="M321.07,164.17s-24.47,60.83-17.84,89.48c6,25.89,32.5,74.92,32.5,74.92l10.25-5.15s-16.39-59.19-18.17-72.05c-3.46-25.02,18.78-60.33,18.78-87.21h-25.52Z"/>
      </g>
      <path class="cls-2" d="M341.06,337.15l7.61-5.54c.28-.2.64-.17.88.07l5.25,5.39c.54.56.44,1.54-.21,1.99-2.69,1.89-4.08,2.66-7.42,5.09-2.06,1.5-6.16,4.81-9,6.88-2.78,2.02-5.04-.63-4.04-1.75,4.48-5,5.42-8.1,6.11-10.9.13-.51.42-.95.83-1.24Z"/>
      <polygon class="cls-18" points="335.07 330.74 348.3 324.69 346.61 319.3 332.44 325.76 335.07 330.74"/>
      <g>
        <path class="cls-18" d="M327.56,114.41c-1.1-2.84-10.66-5.96-15.45-7.04l-2.11,15.77s7.83,11.26,11.27,10.32c4.06-1.1,8.64-12.96,6.29-19.05Z"/>
        <path class="cls-9" d="M327.56,114.41c-1.1-2.84-10.66-5.96-15.45-7.04l-2.11,15.77s7.83,11.26,11.27,10.32c4.06-1.1,8.64-12.96,6.29-19.05Z"/>
      </g>
      <g>
        <path class="cls-18" d="M317.07,113.61s-3.99,1.41,4,50.56h34.02c-.57-13.85-.59-22.38,6.03-50.8,0,0-7.13-1.55-14.45-1.9-5.72-.28-10.41-.46-15.45,0-6.63.61-14.16,2.15-14.16,2.15Z"/>
        <path class="cls-9" d="M317.07,113.61s-3.99,1.41,4,50.56h34.02c-.57-13.85-.59-22.38,6.03-50.8,0,0-7.13-1.55-14.45-1.9-5.72-.28-10.41-.46-15.45,0-6.63.61-14.16,2.15-14.16,2.15Z"/>
      </g>
      <g>
        <path class="cls-18" d="M355.6,162.17l1.53,3.05c.12.24-.16.48-.55.48h-35.68c-.31,0-.56-.15-.58-.34l-.31-3.05c-.02-.21.24-.39.58-.39h34.45c.25,0,.48.1.55.26Z"/>
        <path class="cls-5" d="M355.6,162.17l1.53,3.05c.12.24-.16.48-.55.48h-35.68c-.31,0-.56-.15-.58-.34l-.31-3.05c-.02-.21.24-.39.58-.39h34.45c.25,0,.48.1.55.26Z"/>
      </g>
      <path class="cls-2" d="M350.97,166.02h.92c.18,0,.32-.09.31-.21l-.43-3.96c-.01-.12-.17-.21-.36-.21h-.92c-.18,0-.32.09-.31.21l.43,3.96c.01.12.17.21.36.21Z"/>
      <path class="cls-2" d="M328.61,166.02h.92c.18,0,.32-.09.31-.21l-.43-3.96c-.01-.12-.17-.21-.36-.21h-.92c-.18,0-.32.09-.31.21l.43,3.96c.01.12.17.21.36.21Z"/>
    </g>
  </g>
</svg>