<?xml version="1.0" encoding="UTF-8"?>
<svg id="Capa_3" xmlns="http://www.w3.org/2000/svg" version="1.1" viewBox="0 0 138.86 132.64">
  <!-- Generator: Adobe Illustrator 29.0.0, SVG Export Plug-In . SVG Version: 2.1.0 Build 186)  -->
  <defs>
    <style>
      .st0 {
        fill: #6eba78;
      }

      .st1 {
        fill: #fff;
        stroke: #6eba78;
        stroke-miterlimit: 10;
      }
    </style>
  </defs>
  <path class="st1" d="M69.52.79L.5,38.07v94.07h137.86V43.81L69.52.79ZM57.44,55.54c3.67-8.71,17.36-10.37,24.43-4.29,7.17-6.38,23.08-4.28,24.85,6.5,1.13,13.38-17.8,21.99-24.85,28.5-5.99-4.62-11.98-9.24-17.97-13.86-2.63-1.57-8.97-9.57-6.46-16.86ZM115.39,89.14c-3.41,2.72-6.76,3.53-9.16,6.64-2.79,2.64-6.48,2.63-7.69,2.57-3.61,1.65-7.41,4.99-10.53,7.5-1.26.95-3.16,2.28-5.69,3.64-5.64.59-13.87-.34-18.64-1.82-9.29-1.47-22.04-5.95-30.74,0l-12.74-15.32c7.9-5.21,15.87-11.78,26.01-10.39,3.49.55,9.42-.22,12.32-1.39,8.5-2.5,12.82,5.44,20.53,6.54,3.92,1.59,9.11,1.34,12.74-.86,2.32-2.46,8.38-8.15,16.64-8.14,3.35.51,7.52-.85,10.63,2.46l-.74.96c1.57-.54,3.46,1.1,3.47,2.46-1.86,1.66-3.99,3.41-6.42,5.14Z"/>
  <polygon class="st1" points="42.84 12.54 42.84 .5 15.77 .5 16.89 26.46 42.84 12.54"/>
  <path class="st0" d="M63.9,72.39c5.99,4.62,11.98,9.24,17.97,13.86,7.06-6.52,25.98-15.12,24.85-28.5-1.78-10.79-17.67-12.88-24.85-6.5-2.52-2.74-10.76-4.43-13.48-3.36-15.75,2.38-13.14,18.28-4.49,24.5Z"/>
  <path class="st0" d="M120.44,81.86c-.95-.57-1.9-.37-2.11-.32l.74-.96c-3.13-3.32-7.31-1.95-10.63-2.46-8.26-.01-14.31,5.68-16.64,8.14-3.62,2.19-8.82,2.45-12.74.86-7.7-1.1-12.05-9.04-20.53-6.53-2.89,1.18-8.83,1.95-12.32,1.39-10.12-1.4-18.12,5.18-26.01,10.39l12.74,15.32c8.72-5.95,21.45-1.47,30.74,0,4.77,1.48,13,2.41,18.64,1.82,2.53-1.37,4.43-2.69,5.69-3.64,3.11-2.5,6.94-5.86,10.53-7.5,1.2.06,4.89.07,7.69-2.57,2.4-3.11,5.75-3.92,9.16-6.64,2.43-1.74,4.57-3.48,6.42-5.14-.02-.16-.21-1.44-1.37-2.14Z"/>
</svg>